<?xml version="1.0" encoding="UTF-8" standalone="no"?>
<!-- Generator: Adobe Illustrator 19.0.0, SVG Export Plug-In . SVG Version: 6.00 Build 0)  -->

<svg
   xmlns:dc="http://purl.org/dc/elements/1.1/"
   xmlns:cc="http://creativecommons.org/ns#"
   xmlns:rdf="http://www.w3.org/1999/02/22-rdf-syntax-ns#"
   xmlns:svg="http://www.w3.org/2000/svg"
   xmlns="http://www.w3.org/2000/svg"
   xmlns:sodipodi="http://sodipodi.sourceforge.net/DTD/sodipodi-0.dtd"
   xmlns:inkscape="http://www.inkscape.org/namespaces/inkscape"
   version="1.1"
   id="Capa_1"
   x="0px"
   y="0px"
   viewBox="0 0 436.67978 512"
   xml:space="preserve"
   width="436.67978"
   height="512"
   sodipodi:docname="monster.svg"
   inkscape:version="0.92.4 (unknown)"><metadata
   id="metadata79"><rdf:RDF><cc:Work
       rdf:about=""><dc:format>image/svg+xml</dc:format><dc:type
         rdf:resource="http://purl.org/dc/dcmitype/StillImage" /><dc:title></dc:title></cc:Work></rdf:RDF></metadata><defs
   id="defs77" /><sodipodi:namedview
   pagecolor="#8dd0c7"
   bordercolor="#666666"
   borderopacity="1"
   objecttolerance="10"
   gridtolerance="10"
   guidetolerance="10"
   inkscape:pageopacity="0"
   inkscape:pageshadow="2"
   inkscape:window-width="1920"
   inkscape:window-height="1023"
   id="namedview75"
   showgrid="true"
   inkscape:zoom="0.4609375"
   inkscape:cx="218.3394"
   inkscape:cy="256"
   inkscape:window-x="0"
   inkscape:window-y="27"
   inkscape:window-maximized="1"
   inkscape:current-layer="Capa_1"><inkscape:grid
     type="xygrid"
     id="grid81"
     originx="-37.660597"
     originy="0" /></sodipodi:namedview>
<g
   id="g6"
   transform="translate(-37.660597)">
	<g
   id="g4">
		<path
   d="M 425.86,300.93 C 424,299.069 421.43,298 418.79,298 c -2.63,0 -5.199,1.069 -7.069,2.93 -1.86,1.86 -2.931,4.44 -2.931,7.07 0,2.63 1.07,5.21 2.931,7.069 1.87,1.86 4.439,2.931 7.069,2.931 2.631,0 5.211,-1.07 7.07,-2.931 1.87,-1.859 2.93,-4.43 2.93,-7.069 0,-2.641 -1.06,-5.21 -2.93,-7.07 z"
   id="path2"
   inkscape:connector-curvature="0"
   style="fill:#ffffff" />
	</g>
</g>
<g
   id="g12"
   transform="translate(-37.660597)">
	<g
   id="g10">
		<path
   d="m 461.437,427.592 -22.638,-25.186 c -6.451,-7.178 -10.005,-16.446 -10.005,-26.098 v -27.093 c 0,-5.522 -4.478,-10 -10,-10 -5.522,0 -10,4.478 -10,10 v 27.093 c 0,14.597 5.374,28.613 15.131,39.468 l 22.637,25.185 c 9.714,10.808 10.421,27.077 1.664,38.707 l -0.142,0.189 c -8.208,10.902 -22.808,15.023 -35.507,10.018 l -14.148,-5.576 c -17.334,-6.831 -35.98,-8.04 -53.927,-3.491 -20.154,5.105 -51.881,11.192 -88.571,11.192 -36.69,0 -68.417,-6.087 -88.57,-11.192 -17.946,-4.547 -36.594,-3.341 -53.928,3.491 l -14.148,5.576 c -12.697,5.005 -27.299,0.884 -35.506,-10.018 -8.811,-11.701 -8.037,-28.044 1.838,-38.86 l 22.911,-25.101 c 9.954,-10.902 15.437,-25.039 15.437,-39.805 V 237.583 c 0,-84.042 68.373,-152.415 152.416,-152.415 84.041,0 152.414,68.373 152.414,152.415 V 268.5 c 0,5.522 4.478,10 10,10 5.522,0 10,-4.478 10,-10 v -30.917 c 0,-51.099 -22.353,-97.069 -57.784,-128.669 V 58.28 c 11.639,-4.128 20,-15.243 20,-28.28 0,-16.542 -13.458,-30 -30,-30 -16.542,0 -30,13.458 -30,30 0,13.036 8.361,24.152 20,28.28 V 93.533 C 323.827,75.615 291.303,65.168 256.38,65.168 c -35.239,0 -68.037,10.635 -95.369,28.852 V 58.28 c 11.639,-4.128 20,-15.243 20,-28.28 0,-16.542 -13.458,-30 -30,-30 -16.542,0 -30,13.458 -30,30 0,13.036 8.361,24.152 20,28.28 v 51.289 c -35.005,31.579 -57.046,77.269 -57.046,128.014 v 138.509 c 0,9.764 -3.625,19.111 -10.207,26.32 l -22.912,25.101 c -16.357,17.918 -17.638,44.991 -3.045,64.374 13.597,18.061 37.783,24.887 58.818,16.596 l 14.148,-5.576 c 13.41,-5.284 27.822,-6.222 41.682,-2.712 21.257,5.385 54.73,11.805 93.482,11.805 38.751,0 72.226,-6.42 93.483,-11.806 13.859,-3.51 28.271,-2.573 41.682,2.712 l 14.148,5.576 c 21.035,8.291 45.219,1.466 58.834,-16.616 l 0.141,-0.189 c 14.48,-19.231 13.31,-46.182 -2.782,-64.085 z M 351.01,30 c 0,-5.514 4.487,-10 10,-10 5.514,0 10,4.486 10,10 0,5.514 -4.486,10 -10,10 -5.514,0 -10,-4.486 -10,-10 z m -210,0 c 0,-5.514 4.487,-10 10,-10 5.514,0 10,4.486 10,10 0,5.514 -4.486,10 -10,10 -5.514,0 -10,-4.486 -10,-10 z"
   id="path8"
   inkscape:connector-curvature="0"
   style="fill:#ffffff" />
	</g>
</g>
<g
   id="g18"
   transform="translate(-37.660597)">
	<g
   id="g16">
		<path
   d="m 311.165,200.846 c -30.412,-30.412 -79.896,-30.412 -110.309,0 -30.413,30.412 -30.412,79.896 0,110.309 15.206,15.206 35.181,22.809 55.154,22.809 19.973,0 39.948,-7.603 55.154,-22.809 30.413,-30.413 30.413,-79.897 0.001,-110.309 z m -14.143,96.166 c -22.613,22.615 -59.41,22.615 -82.023,0 -22.614,-22.614 -22.614,-59.409 0,-82.023 11.307,-11.308 26.159,-16.961 41.012,-16.961 14.853,0 29.705,5.653 41.012,16.961 22.612,22.614 22.612,59.408 -0.001,82.023 z"
   id="path14"
   inkscape:connector-curvature="0"
   style="fill:#ffffff" />
	</g>
</g>
<g
   id="g24"
   transform="translate(-37.660597)">
	<g
   id="g22">
		<path
   d="m 280.051,231.958 c -13.255,-13.255 -34.824,-13.256 -48.083,0.001 -13.255,13.256 -13.255,34.826 0.001,48.083 6.628,6.628 15.334,9.941 24.041,9.941 8.707,0 17.413,-3.313 24.041,-9.941 0.001,0 0.001,0 0.001,-10e-4 13.255,-13.256 13.255,-34.826 -0.001,-48.083 z m -14.14,33.941 c -5.461,5.459 -14.343,5.458 -19.8,10e-4 -5.458,-5.459 -5.458,-14.342 -10e-4,-19.8 2.73,-2.729 6.315,-4.094 9.9,-4.094 3.585,0 7.171,1.364 9.899,4.093 5.459,5.46 5.459,14.342 0.002,19.8 z"
   id="path20"
   inkscape:connector-curvature="0"
   style="fill:#ffffff" />
	</g>
</g>
<g
   id="g30"
   transform="translate(-37.660597)">
	<g
   id="g28">
		<path
   d="m 256.915,112.323 -0.439,-10e-4 c -5.522,0 -10,4.478 -10,10 0,5.522 4.478,10 10,10 l 0.439,0.001 c 5.522,0 10,-4.478 10,-10 0,-5.522 -4.478,-10 -10,-10 z"
   id="path26"
   inkscape:connector-curvature="0"
   style="fill:#ffffff" />
	</g>
</g>
<g
   id="g36"
   transform="translate(-37.660597)">
	<g
   id="g34">
		<path
   d="m 359.071,158.746 c -15.228,-17.316 -34.686,-30.583 -56.272,-38.364 -5.198,-1.875 -10.926,0.82 -12.799,6.016 -1.873,5.196 0.82,10.926 6.016,12.799 18.42,6.64 35.031,17.967 48.035,32.756 1.977,2.248 4.738,3.396 7.514,3.396 2.345,0 4.7,-0.82 6.6,-2.49 4.147,-3.647 4.553,-9.966 0.906,-14.113 z"
   id="path32"
   inkscape:connector-curvature="0"
   style="fill:#ffffff" />
	</g>
</g>
<g
   id="g42"
   transform="translate(-37.660597)">
	<g
   id="g40">
		<path
   d="m 317.995,379.144 c -3.905,-3.905 -10.235,-3.905 -14.141,0 -12.779,12.78 -29.771,19.818 -47.844,19.818 -18.073,0 -35.064,-7.038 -47.844,-19.818 -3.904,-3.903 -10.234,-3.905 -14.143,0 -3.905,3.905 -3.905,10.237 0,14.143 16.557,16.557 38.57,25.676 61.986,25.676 23.416,0 45.43,-9.119 61.986,-25.676 3.905,-3.905 3.905,-10.237 0,-14.143 z"
   id="path38"
   inkscape:connector-curvature="0"
   style="fill:#ffffff" />
	</g>
</g>
<g
   id="g44"
   transform="translate(-37.660597)">
</g>
<g
   id="g46"
   transform="translate(-37.660597)">
</g>
<g
   id="g48"
   transform="translate(-37.660597)">
</g>
<g
   id="g50"
   transform="translate(-37.660597)">
</g>
<g
   id="g52"
   transform="translate(-37.660597)">
</g>
<g
   id="g54"
   transform="translate(-37.660597)">
</g>
<g
   id="g56"
   transform="translate(-37.660597)">
</g>
<g
   id="g58"
   transform="translate(-37.660597)">
</g>
<g
   id="g60"
   transform="translate(-37.660597)">
</g>
<g
   id="g62"
   transform="translate(-37.660597)">
</g>
<g
   id="g64"
   transform="translate(-37.660597)">
</g>
<g
   id="g66"
   transform="translate(-37.660597)">
</g>
<g
   id="g68"
   transform="translate(-37.660597)">
</g>
<g
   id="g70"
   transform="translate(-37.660597)">
</g>
<g
   id="g72"
   transform="translate(-37.660597)">
</g>
</svg>