<?xml version="1.0" encoding="UTF-8" standalone="no"?>
<!-- Generator: Adobe Illustrator 19.0.0, SVG Export Plug-In . SVG Version: 6.00 Build 0)  -->

<svg
   xmlns:dc="http://purl.org/dc/elements/1.1/"
   xmlns:cc="http://creativecommons.org/ns#"
   xmlns:rdf="http://www.w3.org/1999/02/22-rdf-syntax-ns#"
   xmlns:svg="http://www.w3.org/2000/svg"
   xmlns="http://www.w3.org/2000/svg"
   xmlns:sodipodi="http://sodipodi.sourceforge.net/DTD/sodipodi-0.dtd"
   xmlns:inkscape="http://www.inkscape.org/namespaces/inkscape"
   version="1.1"
   id="Capa_1"
   x="0px"
   y="0px"
   viewBox="0 0 356.0912 471.47756"
   xml:space="preserve"
   width="386.6969"
   height="512.00061"
   sodipodi:docname="robotic.svg"
   inkscape:version="0.92.4 (unknown)"><metadata
   id="metadata73"><rdf:RDF><cc:Work
       rdf:about=""><dc:format>image/svg+xml</dc:format><dc:type
         rdf:resource="http://purl.org/dc/dcmitype/StillImage" /><dc:title></dc:title></cc:Work></rdf:RDF></metadata><defs
   id="defs71" /><sodipodi:namedview
   pagecolor="#b3b5b5"
   bordercolor="#666666"
   borderopacity="1"
   objecttolerance="10"
   gridtolerance="10"
   guidetolerance="10"
   inkscape:pageopacity="0"
   inkscape:pageshadow="2"
   inkscape:window-width="1920"
   inkscape:window-height="1023"
   id="namedview69"
   showgrid="false"
   inkscape:zoom="0.4609375"
   inkscape:cx="193.34857"
   inkscape:cy="158.8768"
   inkscape:window-x="0"
   inkscape:window-y="27"
   inkscape:window-maximized="1"
   inkscape:current-layer="Capa_1" />
<g
   id="g6"
   transform="translate(-57.692791,-9.6070613e-4)">
	<g
   id="g4">
		<path
   d="m 190.024,105.178 c -17.673,0 -32,14.327 -32,32 0,17.673 14.327,32 32,32 17.673,0 32,-14.327 32,-32 0,-17.673 -14.327,-32 -32,-32 z m 0,48 c -8.837,0 -16,-7.163 -16,-16 0.044,-8.805 7.195,-15.92 16,-15.92 v -0.08 c 8.837,0 16,7.163 16,16 0,8.837 -7.163,16 -16,16 z"
   id="path2"
   inkscape:connector-curvature="0"
   style="fill:#ffffff" />
	</g>
</g>
<g
   id="g12"
   transform="translate(-57.692791,-9.6070613e-4)">
	<g
   id="g10">
		<path
   d="m 281.544,105.178 c -17.673,0 -32,14.327 -32,32 0,17.673 14.327,32 32,32 17.673,0 32,-14.327 32,-32 0,-17.673 -14.327,-32 -32,-32 z m 0,48 c -8.837,0 -16,-7.163 -16,-16 0.044,-8.805 7.195,-15.92 16,-15.92 v -0.08 c 8.837,0 16,7.163 16,16 0,8.837 -7.163,16 -16,16 z"
   id="path8"
   inkscape:connector-curvature="0"
   style="fill:#ffffff" />
	</g>
</g>
<g
   id="g18"
   transform="translate(-57.692791,-9.6070613e-4)">
	<g
   id="g16">
		<path
   d="m 379.097,142.007 c -3.452,-18.993 -18.742,-33.603 -37.872,-36.189 -5.28,-19.52 -20.48,-36.16 -51.04,-36.16 h -46.4 v -17.6 c 14.034,-4.418 21.829,-19.377 17.41,-33.41 -4.418,-14.034 -19.377,-21.829 -33.41,-17.41 -14.034,4.418 -21.829,19.377 -17.41,33.41 2.613,8.298 9.112,14.798 17.41,17.41 v 17.2 h -46.32 c -21.6,0 -44.32,9.92 -51.2,36.16 -24.381,3.347 -41.433,25.825 -38.086,50.206 2.624,19.117 17.255,34.372 36.246,37.794 l -0.08,0.4 c 2.4,35.12 28.48,48 53.04,48 h 108.8 c 36.56,0 51.2,-24 53.04,-48 24.212,-4.402 40.273,-27.598 35.872,-51.811 z m -250.993,35.811 c -15.11,-4.368 -23.819,-20.158 -19.452,-35.268 2.715,-9.393 10.059,-16.737 19.452,-19.452 z m 97.04,-150.72 c 0,-5.876 4.764,-10.64 10.64,-10.64 5.876,0 10.64,4.764 10.64,10.64 0,5.876 -4.764,10.64 -10.64,10.64 -5.876,0 -10.64,-4.764 -10.64,-10.64 z m 102.32,160.96 c 0,13.92 -4.88,37.28 -37.28,37.28 h -108.72 c -13.92,0 -37.28,-4.88 -37.28,-37.28 l -0.08,-64.96 c 0,-32.48 23.36,-37.28 37.28,-37.28 h 108.8 c 32.48,0 37.28,23.36 37.28,37.28 z m 15.68,-10.8 v -54.72 c 12.196,3.52 20.604,14.667 20.64,27.36 -0.036,12.693 -8.444,23.84 -20.64,27.36 z"
   id="path14"
   inkscape:connector-curvature="0"
   style="fill:#ffffff" />
	</g>
</g>
<g
   id="g24"
   transform="translate(-57.692791,-9.6070613e-4)">
	<g
   id="g22">
		<path
   d="m 281.544,190.938 h -91.52 c -4.418,0 -8,3.582 -8,8 0,4.418 3.582,8 8,8 h 91.52 c 4.418,0 8,-3.582 8,-8 0,-4.418 -3.582,-8 -8,-8 z"
   id="path20"
   inkscape:connector-curvature="0"
   style="fill:#ffffff" />
	</g>
</g>
<g
   id="g30"
   transform="translate(-57.692791,-9.6070613e-4)">
	<g
   id="g28">
		<path
   d="m 413.784,256.778 v 0 c -0.153,-17.142 -14.173,-30.915 -31.315,-30.762 -14.344,0.128 -26.732,10.067 -29.965,24.042 l -21.36,4.16 h -190.72 l -21.36,-4.16 C 115.404,233.31 98.861,222.7 82.113,226.36 c -16.748,3.66 -27.358,20.203 -23.698,36.951 2.488,11.384 11.141,20.416 22.409,23.388 v 59.76 c -13.533,3.61 -22.972,15.834 -23.04,29.84 v 14.16 c 0,4.418 3.582,8 8,8 4.418,0 8,-3.582 8,-8 v -14.24 c 0,-8.306 6.734,-15.04 15.04,-15.04 8.306,0 15.04,6.734 15.04,15.04 v 14.24 c 0,4.418 3.582,8 8,8 4.418,0 8,-3.582 8,-8 v -14.24 c -0.068,-14.006 -9.507,-26.23 -23.04,-29.84 v -59.76 c 10.163,-2.738 18.239,-10.453 21.44,-20.48 l 13.36,2.64 v 98.72 c 0.016,14.473 3.068,28.781 8.96,42 v 0.72 c 23.619,52.357 85.21,75.653 137.566,52.034 23.106,-10.424 41.61,-28.927 52.034,-52.034 l 0.4,-0.88 c 5.955,-13.151 9.089,-27.404 9.2,-41.84 v -98.72 l 13.36,-2.64 c 3.201,10.027 11.277,17.742 21.44,20.48 v 59.76 c -13.533,3.61 -22.972,15.834 -23.04,29.84 v 14.24 c 0,4.418 3.582,8 8,8 4.418,0 8,-3.582 8,-8 v -14.24 c 0.008,-8.306 6.748,-15.034 15.054,-15.026 8.295,0.008 15.018,6.731 15.026,15.026 v 14.24 c 0,4.418 3.582,8 8,8 4.418,0 8,-3.582 8,-8 v -14.24 c -0.068,-14.006 -9.507,-26.23 -23.04,-29.84 v -59.76 c 13.596,-3.55 23.112,-15.79 23.2,-29.841 z m -324.96,15.04 c -8.306,0 -15.04,-6.734 -15.04,-15.04 0,-8.306 6.734,-15.04 15.04,-15.04 8.306,0 15.04,6.734 15.04,15.04 0,8.306 -6.734,15.04 -15.04,15.04 z m 146.96,183.76 c -30.139,-10e-4 -58.182,-15.425 -74.32,-40.88 h 148.64 c -16.138,25.454 -44.181,40.879 -74.32,40.88 z m 88,-88 c -0.039,10.668 -2.018,21.24 -5.84,31.2 h -164.48 c -3.822,-9.96 -5.801,-20.532 -5.84,-31.2 v -97.36 h 176.16 z m 59.043,-95.762 c -0.028,0 -0.055,0.001 -0.083,0.001 l -0.16,-0.24 c -8.306,0 -15.04,-6.734 -15.04,-15.04 0,-8.306 6.734,-15.04 15.04,-15.04 8.306,0 15.04,6.734 15.04,15.04 0.133,8.306 -6.492,15.146 -14.797,15.279 z"
   id="path26"
   inkscape:connector-curvature="0"
   style="fill:#ffffff" />
	</g>
</g>
<g
   id="g36"
   transform="translate(-57.692791,-9.6070613e-4)">
	<g
   id="g34">
		<path
   d="m 264.085,326.679 c -1.465,-1.322 -3.367,-2.056 -5.341,-2.061 h -24 l 29.44,-30.24 c 2.83,-3.393 2.375,-8.437 -1.018,-11.268 -3.034,-2.531 -7.461,-2.468 -10.422,0.148 l -42.64,43.84 c -3.093,3.155 -3.042,8.22 0.113,11.313 1.507,1.477 3.537,2.299 5.647,2.287 h 24.64 l -30.32,33.76 c -2.952,3.272 -2.702,8.316 0.56,11.28 v 0 c 3.272,2.952 8.316,2.702 11.28,-0.56 l 42.64,-47.2 c 2.96,-3.28 2.701,-8.339 -0.579,-11.299 z"
   id="path32"
   inkscape:connector-curvature="0"
   style="fill:#ffffff" />
	</g>
</g>
<g
   id="g38"
   transform="translate(-57.692791,-9.6070613e-4)">
</g>
<g
   id="g40"
   transform="translate(-57.692791,-9.6070613e-4)">
</g>
<g
   id="g42"
   transform="translate(-57.692791,-9.6070613e-4)">
</g>
<g
   id="g44"
   transform="translate(-57.692791,-9.6070613e-4)">
</g>
<g
   id="g46"
   transform="translate(-57.692791,-9.6070613e-4)">
</g>
<g
   id="g48"
   transform="translate(-57.692791,-9.6070613e-4)">
</g>
<g
   id="g50"
   transform="translate(-57.692791,-9.6070613e-4)">
</g>
<g
   id="g52"
   transform="translate(-57.692791,-9.6070613e-4)">
</g>
<g
   id="g54"
   transform="translate(-57.692791,-9.6070613e-4)">
</g>
<g
   id="g56"
   transform="translate(-57.692791,-9.6070613e-4)">
</g>
<g
   id="g58"
   transform="translate(-57.692791,-9.6070613e-4)">
</g>
<g
   id="g60"
   transform="translate(-57.692791,-9.6070613e-4)">
</g>
<g
   id="g62"
   transform="translate(-57.692791,-9.6070613e-4)">
</g>
<g
   id="g64"
   transform="translate(-57.692791,-9.6070613e-4)">
</g>
<g
   id="g66"
   transform="translate(-57.692791,-9.6070613e-4)">
</g>
</svg>