<?xml version="1.0" encoding="UTF-8" standalone="no"?>
<!-- Generator: Adobe Illustrator 19.0.0, SVG Export Plug-In . SVG Version: 6.00 Build 0)  -->

<svg
   xmlns:dc="http://purl.org/dc/elements/1.1/"
   xmlns:cc="http://creativecommons.org/ns#"
   xmlns:rdf="http://www.w3.org/1999/02/22-rdf-syntax-ns#"
   xmlns:svg="http://www.w3.org/2000/svg"
   xmlns="http://www.w3.org/2000/svg"
   xmlns:sodipodi="http://sodipodi.sourceforge.net/DTD/sodipodi-0.dtd"
   xmlns:inkscape="http://www.inkscape.org/namespaces/inkscape"
   version="1.1"
   id="Capa_1"
   x="0px"
   y="0px"
   viewBox="0 0 226.96214 641.76133"
   xml:space="preserve"
   width="243.26518"
   height="687.86005"
   sodipodi:docname="shooting-star.svg"
   inkscape:version="0.92.4 (unknown)"><metadata
   id="metadata115"><rdf:RDF><cc:Work
       rdf:about=""><dc:format>image/svg+xml</dc:format><dc:type
         rdf:resource="http://purl.org/dc/dcmitype/StillImage" /><dc:title></dc:title></cc:Work></rdf:RDF></metadata><defs
   id="defs113"><inkscape:tag
     id="Définir 1" /></defs><sodipodi:namedview
   pagecolor="#c3cecc"
   bordercolor="#666666"
   borderopacity="1"
   objecttolerance="10"
   gridtolerance="10"
   guidetolerance="10"
   inkscape:pageopacity="0"
   inkscape:pageshadow="2"
   inkscape:window-width="1920"
   inkscape:window-height="1023"
   id="namedview111"
   showgrid="true"
   inkscape:zoom="0.4609375"
   inkscape:cx="11.494975"
   inkscape:cy="266.72194"
   inkscape:window-x="0"
   inkscape:window-y="27"
   inkscape:window-maximized="1"
   inkscape:current-layer="Capa_1"><inkscape:grid
     type="xygrid"
     id="grid3822"
     originx="-122.86582"
     originy="90.967283" /></sodipodi:namedview>












<g
   id="g3863"
   transform="rotate(135.39231,162.41435,250.19833)"><g
     id="g6">
	<g
   id="g4">
		<path
   id="path2"
   d="m 191.674,371.331 c -1.022,-3.373 -4.131,-5.68 -7.656,-5.68 h -58.456 l -22.048,-58.808 c -1.543,-4.14 -6.151,-6.245 -10.291,-4.701 -2.175,0.811 -3.891,2.526 -4.701,4.701 L 66.474,365.651 H 8.018 c -4.418,-0.001 -8.001,3.58 -8.002,7.998 -0.001,2.675 1.336,5.174 3.562,6.658 l 48,32 -19.112,54.704 c -1.463,4.169 0.731,8.735 4.9,10.197 2.377,0.834 5.007,0.5 7.1,-0.901 l 51.552,-34.376 51.56,34.4 c 3.67,2.46 8.639,1.48 11.1,-2.19 1.406,-2.097 1.739,-4.733 0.9,-7.114 l -19.136,-54.68 48,-32 c 2.956,-1.957 4.271,-5.626 3.232,-9.016 z"
   inkscape:connector-curvature="0"
   style="fill:#ffffff" />
	</g>
</g><g
     id="g12">
	<g
   id="g10">
		<rect
   id="rect8"
   height="16"
   width="316.785"
   transform="matrix(0.7071,-0.7071,0.7071,0.7071,-41.7477,262.5171)"
   y="173.65199"
   x="137.62"
   style="fill:#ffffff" />
	</g>
</g><g
     id="g18">
	<g
   id="g16">
		<rect
   id="rect14"
   height="16"
   width="248.881"
   transform="matrix(0.7071,-0.7071,0.7071,0.7071,-82.3197,292.578)"
   y="237.658"
   x="187.57201"
   style="fill:#ffffff" />
	</g>
</g><g
     id="g24">
	<g
   id="g22">
		<rect
   id="rect20"
   height="16"
   width="248.881"
   transform="matrix(0.7071,-0.7071,0.7071,0.7071,-99.9267,154.0674)"
   y="189.65601"
   x="11.572"
   style="fill:#ffffff" />
	</g>
</g><g
     id="g30">
	<g
   id="g28">
		<rect
   id="rect26"
   height="16"
   width="22.624001"
   transform="matrix(0.7071,-0.7071,0.7071,0.7071,12.091,200.4572)"
   y="77.633003"
   x="236.70599"
   style="fill:#ffffff" />
	</g>
</g><g
     id="g36">
	<g
   id="g34">
		<rect
   id="rect32"
   height="16"
   width="84.856003"
   transform="matrix(0.7071,-0.7071,0.7071,0.7071,-109.5192,182.8992)"
   y="215.651"
   x="123.591"
   style="fill:#ffffff" />
	</g>
</g><g
     id="g42">
	<g
   id="g40">
		
			<rect
   id="rect38"
   height="16"
   width="113.121"
   transform="matrix(0.7071,-0.7071,0.7071,0.7071,-221.2338,277.2165)"
   y="397.66101"
   x="167.453"
   style="fill:#ffffff" />
	</g>
</g><g
     id="g48">
	<g
   id="g46">
		<rect
   id="rect44"
   height="16"
   width="79.192001"
   transform="matrix(0.7071,-0.7071,0.7071,0.7071,-137.2518,312.0202)"
   y="313.68799"
   x="268.42001"
   style="fill:#ffffff" />
	</g>
</g><g
     id="g54">
	<g
   id="g52">
		<rect
   id="rect50"
   height="16"
   width="22.624001"
   transform="matrix(0.7071,-0.7071,0.7071,0.7071,-85.224,333.5501)"
   y="261.64899"
   x="348.707"
   style="fill:#ffffff" />
	</g>
</g><g
     id="g60">
	<g
   id="g58">
		<rect
   id="rect56"
   height="16"
   width="67.879997"
   transform="matrix(0.7071,-0.7071,0.7071,0.7071,110.2507,325.4808)"
   y="21.656"
   x="414.07501"
   style="fill:#ffffff" />
	</g>
</g><g
     id="g66">
	<g
   id="g64">
		<rect
   id="rect62"
   height="16"
   width="22.624001"
   transform="matrix(0.7071,-0.7071,0.7071,0.7071,29.6637,338.9815)"
   y="125.683"
   x="412.707"
   style="fill:#ffffff" />
	</g>
</g><g
     id="g72">
	<g
   id="g70">
		<rect
   id="rect68"
   height="16"
   width="22.624001"
   transform="matrix(0.7071,-0.7071,0.7071,0.7071,-59.5227,203.6088)"
   y="165.655"
   x="204.70399"
   style="fill:#ffffff" />
	</g>
</g><g
     id="g78">
	<g
   id="g76">
		<rect
   id="rect74"
   height="16"
   width="22.624001"
   transform="matrix(0.7071,-0.7071,0.7071,0.7071,-27.5063,216.8575)"
   y="133.632"
   x="236.70399"
   style="fill:#ffffff" />
	</g>
</g></g>
<g
   id="g80"
   transform="translate(-122.86582,73.107027)">
</g>
<g
   id="g82"
   transform="translate(-122.86582,73.107027)">
</g>
<g
   id="g84"
   transform="translate(-122.86582,73.107027)">
</g>
<g
   id="g86"
   transform="translate(-122.86582,73.107027)">
</g>
<g
   id="g88"
   transform="translate(-122.86582,73.107027)">
</g>
<g
   id="g90"
   transform="translate(-122.86582,73.107027)">
</g>
<g
   id="g92"
   transform="translate(-122.86582,73.107027)">
</g>
<g
   id="g94"
   transform="translate(-122.86582,73.107027)">
</g>
<g
   id="g96"
   transform="translate(-122.86582,73.107027)">
</g>
<g
   id="g98"
   transform="translate(-122.86582,73.107027)">
</g>
<g
   id="g100"
   transform="translate(-122.86582,73.107027)">
</g>
<g
   id="g102"
   transform="translate(-122.86582,73.107027)">
</g>
<g
   id="g104"
   transform="translate(-122.86582,73.107027)">
</g>
<g
   id="g106"
   transform="translate(-122.86582,73.107027)">
</g>
<g
   id="g108"
   transform="translate(-122.86582,73.107027)">
</g>
</svg>